<svg width="512" height="512" viewBox="0 0 512 512" fill="none" xmlns="http://www.w3.org/2000/svg">
<path fill-rule="evenodd" clip-rule="evenodd" d="M102.4 64H409.6C430.809 64 448 81.1909 448 102.4V409.6C448 430.809 430.809 448 409.6 448H102.4C81.1909 448 64 430.809 64 409.6V102.4C64 81.1909 81.1909 64 102.4 64Z" fill="#010101"/>
<path fill-rule="evenodd" clip-rule="evenodd" d="M305.121 417.28C316.805 417.28 326.278 407.884 326.278 396.295C326.278 384.706 316.805 375.309 305.121 375.309H301.934C313.618 375.309 323.09 384.706 323.09 396.295C323.09 407.884 313.618 417.28 301.934 417.28H305.121Z" fill="#EE1D52"/>
<path fill-rule="evenodd" clip-rule="evenodd" d="M301.645 375.309H298.458C286.774 375.309 277.3 384.706 277.3 396.295C277.3 407.884 286.774 417.28 298.458 417.28H301.645C289.96 417.28 280.487 407.884 280.487 396.295C280.487 384.706 289.96 375.309 301.645 375.309V375.309Z" fill="#69C9D0"/>
<path fill-rule="evenodd" clip-rule="evenodd" d="M140.796 376.46V365.824H179.34L175.863 376.748H165.721V416.992H153.256V376.46H140.796ZM242.809 376.46V365.824H281.354L277.876 376.748H267.734V416.992H255.269V376.46H242.809ZM187.742 365.824C184.381 365.824 181.661 368.527 181.661 371.86C181.661 375.193 184.381 377.895 187.742 377.897C191.108 377.897 193.829 375.193 193.829 371.86C193.829 368.527 191.106 365.824 187.742 365.824ZM193.829 382.21H181.661V416.992H193.829V382.21ZM199.047 416.992V365.824H211.22V389.681L223.39 377.608H238.169L222.809 392.558L239.909 417.28H226.869L214.988 400.318L211.22 403.77V416.992H199.047ZM330.329 416.992V365.824H342.503V389.681L354.676 377.608H369.456L354.096 392.558L371.196 417.28H358.154L346.27 400.318L342.503 403.77V416.992H330.329ZM323.092 396.295C323.092 407.884 313.617 417.28 301.933 417.28H301.644C289.96 417.28 280.488 407.884 280.488 396.295C280.488 384.706 289.96 375.309 301.644 375.309H301.933C313.617 375.309 323.092 384.706 323.092 396.295ZM301.792 386.092C296.109 386.092 291.501 390.658 291.501 396.295C291.501 401.932 296.109 406.5 301.792 406.502C307.47 406.502 312.078 401.932 312.078 396.295C312.078 390.658 307.47 386.092 301.792 386.092Z" fill="white"/>
<path fill-rule="evenodd" clip-rule="evenodd" d="M311.551 188.702C328.361 200.712 348.955 207.779 371.197 207.779V165C366.987 165.001 362.789 164.562 358.67 163.689V197.363C336.431 197.363 315.839 190.296 299.025 178.286V265.585C299.025 309.256 263.604 344.656 219.913 344.656C203.611 344.656 188.459 339.73 175.871 331.282C190.237 345.964 210.271 355.072 232.436 355.072C276.13 355.072 311.552 319.672 311.552 275.999V188.702H311.551ZM327.003 145.543C318.412 136.163 312.772 124.039 311.551 110.636V105.134H299.68C302.668 122.168 312.859 136.722 327.003 145.543ZM203.505 297.771C198.706 291.482 196.112 283.786 196.123 275.874C196.123 255.9 212.325 239.706 232.313 239.706C236.038 239.703 239.74 240.275 243.291 241.4V197.666C239.142 197.098 234.956 196.857 230.769 196.945V230.986C227.217 229.861 223.513 229.289 219.787 229.292C199.799 229.292 183.599 245.486 183.599 265.462C183.599 279.585 191.696 291.815 203.505 297.771Z" fill="#EE1D52"/>
<path fill-rule="evenodd" clip-rule="evenodd" d="M299.026 178.286C315.841 190.296 336.432 197.363 358.672 197.363V163.689C346.258 161.048 335.268 154.563 327.004 145.543C312.861 136.722 302.669 122.168 299.682 105.134H268.503V275.997C268.432 295.916 252.258 312.044 232.313 312.044C220.56 312.044 210.118 306.445 203.505 297.772C191.697 291.815 183.599 279.585 183.599 265.462C183.599 245.486 199.799 229.292 219.787 229.292C223.616 229.292 227.307 229.888 230.769 230.986V196.945C187.846 197.832 153.324 232.886 153.324 275.999C153.324 297.52 161.921 317.03 175.873 331.284C188.46 339.732 203.613 344.658 219.914 344.658C263.606 344.658 299.026 309.256 299.026 265.586V178.286Z" fill="white"/>
<path fill-rule="evenodd" clip-rule="evenodd" d="M358.67 163.689V154.584C347.475 154.601 336.501 151.467 327.003 145.542C335.41 154.742 346.482 161.087 358.67 163.689ZM299.68 105.134C299.395 103.506 299.176 101.868 299.024 100.222V94.72H255.973V265.585C255.904 285.502 239.732 301.63 219.785 301.63C213.928 301.63 208.4 300.241 203.504 297.771C210.116 306.445 220.558 312.044 232.311 312.044C252.255 312.044 268.43 295.916 268.501 275.997V105.134H299.68ZM230.769 196.945V187.252C227.172 186.76 223.545 186.514 219.914 186.516C176.218 186.516 140.798 221.918 140.798 265.585C140.798 292.962 154.719 317.09 175.872 331.282C161.921 317.028 153.324 297.518 153.324 275.997C153.324 232.886 187.844 197.832 230.769 196.945Z" fill="#69C9D0"/>
</svg>
